<svg width="40" height="41" viewBox="0 0 40 41" fill="none" xmlns="http://www.w3.org/2000/svg">
<rect x="0.392578" y="0.498047" width="39.6054" height="40.0049" rx="19.8027" fill="#EB5757"/>
<path fill-rule="evenodd" clip-rule="evenodd" d="M24.2157 15.9714C23.1878 14.9894 21.8143 14.4521 20.3929 14.476C17.8366 14.5078 15.5853 16.1665 14.7975 18.5987L11.4565 16.0078C13.1538 12.6292 16.612 10.4972 20.3929 10.4987C22.876 10.4699 25.2738 11.4032 27.0838 13.1032L24.2157 15.9714ZM11.4562 24.9896C10.038 22.1636 10.038 18.8338 11.4562 16.0078L14.7971 18.5987C14.379 19.8309 14.379 21.1666 14.7971 22.3987L11.4562 24.9896ZM23.7793 25.5676C20.9753 27.3674 17.2432 26.5534 15.4433 23.7494C15.1728 23.3279 14.9559 22.8745 14.7974 22.3994L11.4565 24.9903C13.1537 28.369 16.612 30.5009 20.3929 30.4994C22.8272 30.5654 25.1947 29.6988 27.0111 28.0767L23.7793 25.5676ZM20.3926 18.6807H29.8107C29.9323 19.3557 29.9931 20.0402 29.9925 20.7261C30.0847 23.4879 29.001 26.1592 27.0107 28.0761L27.0107 28.0762L23.7789 25.5671C23.7758 25.5691 23.7725 25.5706 23.7693 25.5726C23.7725 25.5706 23.7758 25.5691 23.7789 25.567C24.8284 24.8757 25.5494 23.7852 25.7743 22.5488H20.3926V18.6807Z" fill="white"/>
</svg>
