<svg width="101" height="101" viewBox="0 0 101 101" fill="none" xmlns="http://www.w3.org/2000/svg">
<g filter="url(#filter0_d_12_38)">
<rect x="4" width="93" height="93" rx="10" fill="url(#paint0_linear_12_38)"/>
<path fill-rule="evenodd" clip-rule="evenodd" d="M72.0109 36.6693C72.0109 36.8816 72.0069 37.093 71.9989 37.3034H72.0112V72.8205H63.6688L63.6689 72.8207H30.8831L42.2794 48.7203H28.5659C28.5659 41.8326 33.0473 35.9916 39.2533 33.9539C40.5481 26.1386 47.3385 20.1792 55.5209 20.1792C64.6281 20.1792 72.0109 27.5621 72.0109 36.6693ZM50.9386 37.7264C52.1499 37.7264 53.132 36.3515 53.132 34.6556C53.132 32.9597 52.1499 31.5849 50.9386 31.5849C49.7272 31.5849 48.7452 32.9597 48.7452 34.6556C48.7452 36.3515 49.7272 37.7264 50.9386 37.7264Z" fill="white"/>
</g>
<defs>
<filter id="filter0_d_12_38" x="0" y="0" width="101" height="101" filterUnits="userSpaceOnUse" color-interpolation-filters="sRGB">
<feFlood flood-opacity="0" result="BackgroundImageFix"/>
<feColorMatrix in="SourceAlpha" type="matrix" values="0 0 0 0 0 0 0 0 0 0 0 0 0 0 0 0 0 0 127 0" result="hardAlpha"/>
<feOffset dy="4"/>
<feGaussianBlur stdDeviation="2"/>
<feComposite in2="hardAlpha" operator="out"/>
<feColorMatrix type="matrix" values="0 0 0 0 0 0 0 0 0 0 0 0 0 0 0 0 0 0 0.25 0"/>
<feBlend mode="normal" in2="BackgroundImageFix" result="effect1_dropShadow_12_38"/>
<feBlend mode="normal" in="SourceGraphic" in2="effect1_dropShadow_12_38" result="shape"/>
</filter>
<linearGradient id="paint0_linear_12_38" x1="50.5" y1="0" x2="50.5" y2="93" gradientUnits="userSpaceOnUse">
<stop stop-color="#84A4F4"/>
<stop offset="1" stop-color="#413DFD"/>
</linearGradient>
</defs>
</svg>
