<svg width="157" height="43" viewBox="0 0 157 43" fill="none" xmlns="http://www.w3.org/2000/svg">
<path d="M49.3849 24.3606C51.9094 24.3606 53.531 22.575 53.531 20.2063C53.531 17.7466 51.9278 16.1067 49.3849 16.1067H44.3542V29.1525H45.681V24.3606H49.3849ZM49.2006 17.2911C51.0249 17.2911 52.149 18.3843 52.149 20.1881C52.149 21.9737 51.0433 23.1762 49.1269 23.1762H45.681V17.2911H49.2006ZM57.5984 29.3711C59.1095 29.3711 60.3256 28.7152 60.8785 27.6038L61.0443 29.1525H62.1131V23.4495C62.1131 21.1173 60.6021 20.097 58.5382 20.097C56.3454 20.097 54.8712 21.2449 54.8712 23.0305H56.0321C56.0321 21.8461 56.9535 21.1538 58.5014 21.1538C59.8097 21.1538 60.86 21.7004 60.86 23.4313V23.7228L57.9117 23.9597C55.8294 24.1237 54.5763 25.144 54.5763 26.7656C54.5763 28.3144 55.7004 29.3711 57.5984 29.3711ZM57.8932 28.3508C56.6771 28.3508 55.8663 27.8042 55.8663 26.7292C55.8663 25.7453 56.5481 25.0165 58.2249 24.8707L60.86 24.6703V25.144C60.86 27.0572 59.7728 28.3508 57.8932 28.3508ZM69.3266 20.2245C69.0133 20.1517 68.7738 20.1334 68.4974 20.1334C67.2443 20.1334 66.3045 20.7529 65.9544 21.7004L65.8623 20.3339H64.6645V29.1525H65.936V24.1237C65.936 22.4474 66.9864 21.3542 68.6264 21.3542H69.3266V20.2245ZM75.6791 20.2245C75.3658 20.1517 75.1262 20.1334 74.8498 20.1334C73.5967 20.1334 72.6569 20.7529 72.3068 21.7004L72.2147 20.3339H71.0169V29.1525H72.2884V24.1237C72.2884 22.4474 73.3387 21.3542 74.9788 21.3542H75.6791V20.2245ZM76.4007 24.7432C76.4007 27.4216 78.3171 29.3711 80.9338 29.3711C83.5504 29.3711 85.4669 27.4216 85.4669 24.7432C85.4669 22.0466 83.5504 20.097 80.9338 20.097C78.3171 20.097 76.4007 22.0466 76.4007 24.7432ZM77.6906 24.725C77.6906 22.6843 79.0173 21.2267 80.9338 21.2267C82.8318 21.2267 84.177 22.6843 84.177 24.725C84.177 26.8021 82.8318 28.2415 80.9338 28.2415C79.0173 28.2415 77.6906 26.8021 77.6906 24.725ZM89.456 29.1525V21.3906H91.2434V20.3339H89.456V17.5461H88.2029V20.3339H86.4155V21.3906H88.2029V29.1525H89.456ZM97.494 19.4957C97.494 21.2813 98.5812 22.4474 100.645 22.9394L102.875 23.486C104.294 23.8139 104.957 24.5792 104.957 25.7453C104.957 27.2394 103.722 28.1686 101.787 28.1686C99.9816 28.1686 98.7654 27.2758 98.6917 25.9093H97.3281C97.494 28.0411 99.2261 29.3711 101.787 29.3711C104.515 29.3711 106.284 27.9317 106.284 25.6724C106.284 23.905 105.215 22.7389 103.151 22.247L100.885 21.7004C99.5025 21.3542 98.8207 20.6254 98.8207 19.4775C98.8207 18.0017 100.037 17.0542 101.898 17.0542C103.557 17.0542 104.57 17.8923 104.717 19.3682H106.063C105.86 17.1817 104.294 15.8699 101.916 15.8699C99.263 15.8699 97.494 17.3093 97.494 19.4957ZM110.439 29.1525V21.3906H112.226V20.3339H110.439V17.5461H109.186V20.3339H107.398V21.3906H109.186V29.1525H110.439ZM120.147 20.3339V25.0165C120.147 27.1118 119.133 28.2415 117.42 28.2415C116.001 28.2415 115.061 27.4944 115.061 25.3991V20.3156H113.771V25.8C113.771 27.95 114.914 29.3711 117.014 29.3711C118.415 29.3711 119.649 28.6788 120.147 27.6584L120.313 29.1525H121.418V20.3339H120.147ZM127.388 29.3711C128.881 29.3711 130.134 28.7152 130.76 27.3487L130.889 29.1525H131.995V15.8699H130.723V22.0101C130.097 20.7347 128.918 20.097 127.443 20.097C124.79 20.097 123.26 22.1012 123.26 24.7614C123.26 27.4033 124.79 29.3711 127.388 29.3711ZM127.609 28.2233C125.674 28.2233 124.55 26.7656 124.55 24.725C124.55 22.7025 125.674 21.2267 127.609 21.2267C129.562 21.2267 130.705 22.7025 130.705 24.725C130.705 26.7656 129.562 28.2233 127.609 28.2233ZM135.275 17.9106C135.791 17.9106 136.233 17.4915 136.233 16.9813C136.233 16.4711 135.791 16.0339 135.275 16.0339C134.759 16.0339 134.335 16.4711 134.335 16.9813C134.335 17.4915 134.759 17.9106 135.275 17.9106ZM134.648 29.1525H135.92V20.3339H134.648V29.1525ZM137.945 24.7432C137.945 27.4216 139.861 29.3711 142.478 29.3711C145.094 29.3711 147.011 27.4216 147.011 24.7432C147.011 22.0466 145.094 20.097 142.478 20.097C139.861 20.097 137.945 22.0466 137.945 24.7432ZM139.235 24.725C139.235 22.6843 140.561 21.2267 142.478 21.2267C144.376 21.2267 145.721 22.6843 145.721 24.725C145.721 26.8021 144.376 28.2415 142.478 28.2415C140.561 28.2415 139.235 26.8021 139.235 24.725Z" fill="white"/>
<path fill-rule="evenodd" clip-rule="evenodd" d="M30.9577 16.768C30.9577 16.8714 30.9557 16.9742 30.9518 17.0766H30.9579V34.3552H26.8533L26.8534 34.3553H10.7224L16.3295 22.6307H9.58228C9.58228 19.28 11.7871 16.4384 14.8406 15.4471C15.4777 11.6451 18.8186 8.74585 22.8444 8.74585C27.3253 8.74585 30.9577 12.3375 30.9577 16.768ZM20.59 17.2824C21.186 17.2824 21.6691 16.6135 21.6691 15.7884C21.6691 14.9634 21.186 14.2946 20.59 14.2946C19.9939 14.2946 19.5107 14.9634 19.5107 15.7884C19.5107 16.6135 19.9939 17.2824 20.59 17.2824Z" fill="white"/>
</svg>
