<svg width="191" height="36" viewBox="0 0 191 36" fill="none" xmlns="http://www.w3.org/2000/svg">
<path d="M63.86 16.14C63.86 17.3 63.46 18.2667 62.66 19.04C61.8733 19.8 60.6667 20.18 59.04 20.18H56.36V26H54.54V12.06H59.04C60.6133 12.06 61.8067 12.44 62.62 13.2C63.4467 13.96 63.86 14.94 63.86 16.14ZM59.04 18.68C60.0533 18.68 60.8 18.46 61.28 18.02C61.76 17.58 62 16.9533 62 16.14C62 14.42 61.0133 13.56 59.04 13.56H56.36V18.68H59.04ZM65.442 20.48C65.442 19.36 65.6687 18.38 66.122 17.54C66.5754 16.6867 67.1954 16.0267 67.982 15.56C68.782 15.0933 69.6687 14.86 70.642 14.86C71.602 14.86 72.4354 15.0667 73.142 15.48C73.8487 15.8933 74.3754 16.4133 74.722 17.04V15.04H76.562V26H74.722V23.96C74.362 24.6 73.822 25.1333 73.102 25.56C72.3954 25.9733 71.5687 26.18 70.622 26.18C69.6487 26.18 68.7687 25.94 67.982 25.46C67.1954 24.98 66.5754 24.3067 66.122 23.44C65.6687 22.5733 65.442 21.5867 65.442 20.48ZM74.722 20.5C74.722 19.6733 74.5554 18.9533 74.222 18.34C73.8887 17.7267 73.4354 17.26 72.862 16.94C72.302 16.6067 71.682 16.44 71.002 16.44C70.322 16.44 69.702 16.6 69.142 16.92C68.582 17.24 68.1354 17.7067 67.802 18.32C67.4687 18.9333 67.302 19.6533 67.302 20.48C67.302 21.32 67.4687 22.0533 67.802 22.68C68.1354 23.2933 68.582 23.7667 69.142 24.1C69.702 24.42 70.322 24.58 71.002 24.58C71.682 24.58 72.302 24.42 72.862 24.1C73.4354 23.7667 73.8887 23.2933 74.222 22.68C74.5554 22.0533 74.722 21.3267 74.722 20.5ZM81.4577 16.82C81.7777 16.1933 82.231 15.7067 82.8177 15.36C83.4177 15.0133 84.1443 14.84 84.9977 14.84V16.72H84.5177C82.4777 16.72 81.4577 17.8267 81.4577 20.04V26H79.6377V15.04H81.4577V16.82ZM88.9186 16.82C89.2386 16.1933 89.6919 15.7067 90.2786 15.36C90.8786 15.0133 91.6053 14.84 92.4586 14.84V16.72H91.9786C89.9386 16.72 88.9186 17.8267 88.9186 20.04V26H87.0986V15.04H88.9186V16.82ZM99.3395 26.18C98.3129 26.18 97.3795 25.9467 96.5395 25.48C95.7129 25.0133 95.0595 24.3533 94.5795 23.5C94.1129 22.6333 93.8795 21.6333 93.8795 20.5C93.8795 19.38 94.1195 18.3933 94.5995 17.54C95.0929 16.6733 95.7595 16.0133 96.5995 15.56C97.4395 15.0933 98.3795 14.86 99.4195 14.86C100.46 14.86 101.4 15.0933 102.24 15.56C103.08 16.0133 103.74 16.6667 104.22 17.52C104.713 18.3733 104.96 19.3667 104.96 20.5C104.96 21.6333 104.706 22.6333 104.2 23.5C103.706 24.3533 103.033 25.0133 102.18 25.48C101.326 25.9467 100.38 26.18 99.3395 26.18ZM99.3395 24.58C99.9929 24.58 100.606 24.4267 101.18 24.12C101.753 23.8133 102.213 23.3533 102.56 22.74C102.92 22.1267 103.1 21.38 103.1 20.5C103.1 19.62 102.926 18.8733 102.58 18.26C102.233 17.6467 101.78 17.1933 101.22 16.9C100.66 16.5933 100.053 16.44 99.3995 16.44C98.7329 16.44 98.1195 16.5933 97.5595 16.9C97.0129 17.1933 96.5729 17.6467 96.2395 18.26C95.9062 18.8733 95.7395 19.62 95.7395 20.5C95.7395 21.3933 95.8995 22.1467 96.2195 22.76C96.5529 23.3733 96.9929 23.8333 97.5395 24.14C98.0862 24.4333 98.6862 24.58 99.3395 24.58ZM109.573 16.54V23C109.573 23.5333 109.686 23.9133 109.913 24.14C110.139 24.3533 110.533 24.46 111.092 24.46H112.433V26H110.793C109.779 26 109.019 25.7667 108.513 25.3C108.006 24.8333 107.753 24.0667 107.753 23V16.54H106.333V15.04H107.753V12.28H109.573V15.04H112.433V16.54H109.573ZM130.53 16.1C130.143 15.2867 129.583 14.66 128.85 14.22C128.116 13.7667 127.263 13.54 126.29 13.54C125.316 13.54 124.436 13.7667 123.65 14.22C122.876 14.66 122.263 15.3 121.81 16.14C121.37 16.9667 121.15 17.9267 121.15 19.02C121.15 20.1133 121.37 21.0733 121.81 21.9C122.263 22.7267 122.876 23.3667 123.65 23.82C124.436 24.26 125.316 24.48 126.29 24.48C127.65 24.48 128.77 24.0733 129.65 23.26C130.53 22.4467 131.043 21.3467 131.19 19.96H125.63V18.48H133.13V19.88C133.023 21.0267 132.663 22.08 132.05 23.04C131.436 23.9867 130.63 24.74 129.63 25.3C128.63 25.8467 127.516 26.12 126.29 26.12C124.996 26.12 123.816 25.82 122.75 25.22C121.683 24.6067 120.836 23.76 120.21 22.68C119.596 21.6 119.29 20.38 119.29 19.02C119.29 17.66 119.596 16.44 120.21 15.36C120.836 14.2667 121.683 13.42 122.75 12.82C123.816 12.2067 124.996 11.9 126.29 11.9C127.77 11.9 129.076 12.2667 130.21 13C131.356 13.7333 132.19 14.7667 132.71 16.1H130.53ZM134.856 20.48C134.856 19.36 135.083 18.38 135.536 17.54C135.989 16.6867 136.609 16.0267 137.396 15.56C138.196 15.0933 139.083 14.86 140.056 14.86C141.016 14.86 141.849 15.0667 142.556 15.48C143.263 15.8933 143.789 16.4133 144.136 17.04V15.04H145.976V26H144.136V23.96C143.776 24.6 143.236 25.1333 142.516 25.56C141.809 25.9733 140.983 26.18 140.036 26.18C139.063 26.18 138.183 25.94 137.396 25.46C136.609 24.98 135.989 24.3067 135.536 23.44C135.083 22.5733 134.856 21.5867 134.856 20.48ZM144.136 20.5C144.136 19.6733 143.969 18.9533 143.636 18.34C143.303 17.7267 142.849 17.26 142.276 16.94C141.716 16.6067 141.096 16.44 140.416 16.44C139.736 16.44 139.116 16.6 138.556 16.92C137.996 17.24 137.549 17.7067 137.216 18.32C136.883 18.9333 136.716 19.6533 136.716 20.48C136.716 21.32 136.883 22.0533 137.216 22.68C137.549 23.2933 137.996 23.7667 138.556 24.1C139.116 24.42 139.736 24.58 140.416 24.58C141.096 24.58 141.716 24.42 142.276 24.1C142.849 23.7667 143.303 23.2933 143.636 22.68C143.969 22.0533 144.136 21.3267 144.136 20.5ZM162.232 14.84C163.085 14.84 163.845 15.02 164.512 15.38C165.178 15.7267 165.705 16.2533 166.092 16.96C166.478 17.6667 166.672 18.5267 166.672 19.54V26H164.872V19.8C164.872 18.7067 164.598 17.8733 164.052 17.3C163.518 16.7133 162.792 16.42 161.872 16.42C160.925 16.42 160.172 16.7267 159.612 17.34C159.052 17.94 158.772 18.8133 158.772 19.96V26H156.972V19.8C156.972 18.7067 156.698 17.8733 156.152 17.3C155.618 16.7133 154.892 16.42 153.972 16.42C153.025 16.42 152.272 16.7267 151.712 17.34C151.152 17.94 150.872 18.8133 150.872 19.96V26H149.052V15.04H150.872V16.62C151.232 16.0467 151.712 15.6067 152.312 15.3C152.925 14.9933 153.598 14.84 154.332 14.84C155.252 14.84 156.065 15.0467 156.772 15.46C157.478 15.8733 158.005 16.48 158.352 17.28C158.658 16.5067 159.165 15.9067 159.872 15.48C160.578 15.0533 161.365 14.84 162.232 14.84ZM179.657 20.1C179.657 20.4467 179.637 20.8133 179.597 21.2H170.837C170.904 22.28 171.271 23.1267 171.937 23.74C172.617 24.34 173.437 24.64 174.397 24.64C175.184 24.64 175.837 24.46 176.357 24.1C176.891 23.7267 177.264 23.2333 177.477 22.62H179.437C179.144 23.6733 178.557 24.5333 177.677 25.2C176.797 25.8533 175.704 26.18 174.397 26.18C173.357 26.18 172.424 25.9467 171.597 25.48C170.784 25.0133 170.144 24.3533 169.677 23.5C169.211 22.6333 168.977 21.6333 168.977 20.5C168.977 19.3667 169.204 18.3733 169.657 17.52C170.111 16.6667 170.744 16.0133 171.557 15.56C172.384 15.0933 173.331 14.86 174.397 14.86C175.437 14.86 176.357 15.0867 177.157 15.54C177.957 15.9933 178.571 16.62 178.997 17.42C179.437 18.2067 179.657 19.1 179.657 20.1ZM177.777 19.72C177.777 19.0267 177.624 18.4333 177.317 17.94C177.011 17.4333 176.591 17.0533 176.057 16.8C175.537 16.5333 174.957 16.4 174.317 16.4C173.397 16.4 172.611 16.6933 171.957 17.28C171.317 17.8667 170.951 18.68 170.857 19.72H177.777ZM185.94 26.18C185.1 26.18 184.346 26.04 183.68 25.76C183.013 25.4667 182.486 25.0667 182.1 24.56C181.713 24.04 181.5 23.4467 181.46 22.78H183.34C183.393 23.3267 183.646 23.7733 184.1 24.12C184.566 24.4667 185.173 24.64 185.92 24.64C186.613 24.64 187.16 24.4867 187.56 24.18C187.96 23.8733 188.16 23.4867 188.16 23.02C188.16 22.54 187.946 22.1867 187.52 21.96C187.093 21.72 186.433 21.4867 185.54 21.26C184.726 21.0467 184.06 20.8333 183.54 20.62C183.033 20.3933 182.593 20.0667 182.22 19.64C181.86 19.2 181.68 18.6267 181.68 17.92C181.68 17.36 181.846 16.8467 182.18 16.38C182.513 15.9133 182.986 15.5467 183.6 15.28C184.213 15 184.913 14.86 185.7 14.86C186.913 14.86 187.893 15.1667 188.64 15.78C189.386 16.3933 189.786 17.2333 189.84 18.3H188.02C187.98 17.7267 187.746 17.2667 187.32 16.92C186.906 16.5733 186.346 16.4 185.64 16.4C184.986 16.4 184.466 16.54 184.08 16.82C183.693 17.1 183.5 17.4667 183.5 17.92C183.5 18.28 183.613 18.58 183.84 18.82C184.08 19.0467 184.373 19.2333 184.72 19.38C185.08 19.5133 185.573 19.6667 186.2 19.84C186.986 20.0533 187.626 20.2667 188.12 20.48C188.613 20.68 189.033 20.9867 189.38 21.4C189.74 21.8133 189.926 22.3533 189.94 23.02C189.94 23.62 189.773 24.16 189.44 24.64C189.106 25.12 188.633 25.5 188.02 25.78C187.42 26.0467 186.726 26.18 185.94 26.18Z" fill="white"/>
<path fill-rule="evenodd" clip-rule="evenodd" d="M29.7107 11.2771C29.7107 11.4223 29.7079 11.5669 29.7025 11.7109H29.711V35.9999H24.0058L24.0059 36.0001H1.58467L9.37837 19.5182H0C0 14.8079 3.06465 10.8134 7.30877 9.41986C8.19435 4.07538 12.8381 0 18.4336 0C24.6618 0 29.7107 5.04891 29.7107 11.2771ZM15.3 12.0001C16.1285 12.0001 16.8 11.0599 16.8 9.9001C16.8 8.74031 16.1285 7.80011 15.3 7.80011C14.4716 7.80011 13.8 8.74031 13.8 9.9001C13.8 11.0599 14.4716 12.0001 15.3 12.0001Z" fill="white"/>
</svg>
