<svg width="31" height="31" viewBox="0 0 31 31" fill="none" xmlns="http://www.w3.org/2000/svg">
<path d="M27.1252 20.6668H9.04183C8.69926 20.6668 8.37072 20.5307 8.12848 20.2885C7.88625 20.0463 7.75016 19.7177 7.75016 19.3752C7.75016 19.0326 7.88625 18.7041 8.12848 18.4618C8.37072 18.2196 8.69926 18.0835 9.04183 18.0835H22.5268C23.3905 18.0835 24.2294 17.7951 24.9104 17.2638C25.5914 16.7326 26.0754 15.9891 26.2856 15.1514L28.4168 6.7685C28.4652 6.57786 28.4694 6.37869 28.4291 6.18618C28.3888 5.99367 28.3051 5.8129 28.1843 5.65766C28.0587 5.49844 27.8974 5.37104 27.7134 5.28577C27.5294 5.20049 27.3278 5.15975 27.1252 5.16683H8.73183C8.46534 4.41308 7.97224 3.7602 7.32012 3.29771C6.66801 2.83521 5.8888 2.58574 5.08933 2.5835H3.87516C3.53259 2.5835 3.20405 2.71958 2.96182 2.96182C2.71958 3.20405 2.5835 3.53259 2.5835 3.87516C2.5835 4.21773 2.71958 4.54627 2.96182 4.78851C3.20405 5.03074 3.53259 5.16683 3.87516 5.16683H5.08933C5.38439 5.15823 5.6735 5.25096 5.90851 5.42957C6.14353 5.60818 6.31028 5.86191 6.381 6.1485L6.4585 6.7685L8.69308 15.5002C7.66537 15.5464 6.69812 15.999 6.00411 16.7584C5.31011 17.5178 4.94621 18.5218 4.99245 19.5495C5.0387 20.5773 5.49131 21.5445 6.25072 22.2385C7.01012 22.9325 8.01412 23.2964 9.04183 23.2502H9.27433C9.0619 23.8355 8.99363 24.4633 9.07532 25.0806C9.15701 25.6979 9.38625 26.2864 9.74362 26.7962C10.101 27.3061 10.576 27.7224 11.1283 28.0098C11.6807 28.2972 12.2942 28.4472 12.9168 28.4472C13.5395 28.4472 14.153 28.2972 14.7053 28.0098C15.2577 27.7224 15.7327 27.3061 16.09 26.7962C16.4474 26.2864 16.6766 25.6979 16.7583 25.0806C16.84 24.4633 16.7718 23.8355 16.5593 23.2502H19.6077C19.3952 23.8355 19.327 24.4633 19.4087 25.0806C19.4903 25.6979 19.7196 26.2864 20.077 26.7962C20.4343 27.3061 20.9093 27.7224 21.4617 28.0098C22.014 28.2972 22.6275 28.4472 23.2502 28.4472C23.8728 28.4472 24.4863 28.2972 25.0387 28.0098C25.591 27.7224 26.066 27.3061 26.4234 26.7962C26.7807 26.2864 27.01 25.6979 27.0917 25.0806C27.1734 24.4633 27.1051 23.8355 26.8927 23.2502H27.1252C27.4677 23.2502 27.7963 23.1141 28.0385 22.8718C28.2807 22.6296 28.4168 22.3011 28.4168 21.9585C28.4168 21.6159 28.2807 21.2874 28.0385 21.0451C27.7963 20.8029 27.4677 20.6668 27.1252 20.6668ZM25.4718 7.75016L23.7797 14.5185C23.709 14.8051 23.5423 15.0588 23.3073 15.2374C23.0722 15.416 22.7831 15.5088 22.4881 15.5002H11.341L9.4035 7.75016H25.4718ZM12.9168 25.8335C12.6614 25.8335 12.4116 25.7577 12.1992 25.6158C11.9868 25.4739 11.8212 25.2721 11.7235 25.0361C11.6257 24.8001 11.6001 24.5404 11.65 24.2898C11.6998 24.0393 11.8228 23.8091 12.0035 23.6285C12.1841 23.4478 12.4143 23.3248 12.6648 23.275C12.9154 23.2251 13.1751 23.2507 13.4111 23.3485C13.6472 23.4462 13.8489 23.6118 13.9908 23.8242C14.1327 24.0366 14.2085 24.2864 14.2085 24.5418C14.2085 24.8844 14.0724 25.2129 13.8302 25.4552C13.5879 25.6974 13.2594 25.8335 12.9168 25.8335ZM23.2502 25.8335C22.9947 25.8335 22.745 25.7577 22.5326 25.6158C22.3201 25.4739 22.1546 25.2721 22.0568 25.0361C21.9591 24.8001 21.9335 24.5404 21.9833 24.2898C22.0332 24.0393 22.1562 23.8091 22.3368 23.6285C22.5175 23.4478 22.7476 23.3248 22.9982 23.275C23.2487 23.2251 23.5084 23.2507 23.7445 23.3485C23.9805 23.4462 24.1822 23.6118 24.3241 23.8242C24.4661 24.0366 24.5418 24.2864 24.5418 24.5418C24.5418 24.8844 24.4057 25.2129 24.1635 25.4552C23.9213 25.6974 23.5927 25.8335 23.2502 25.8335Z" fill="white"/>
</svg>
