<svg width="156" height="40" viewBox="0 0 156 40" fill="none" xmlns="http://www.w3.org/2000/svg">
<rect x="116" width="40" height="40" rx="6" fill="white"/>
<path fill-rule="evenodd" clip-rule="evenodd" d="M146.043 15.4647C146.043 15.5627 146.041 15.6603 146.037 15.7574H146.043V32.1428H142.194L142.194 32.1429H127.069L132.327 21.0243H126C126 17.8468 128.067 15.1521 130.93 14.212C131.528 10.6065 134.661 7.85718 138.435 7.85718C142.637 7.85718 146.043 11.2632 146.043 15.4647ZM136.322 15.9524C136.88 15.9524 137.333 15.3181 137.333 14.5357C137.333 13.7533 136.88 13.1191 136.322 13.1191C135.763 13.1191 135.31 13.7533 135.31 14.5357C135.31 15.3181 135.763 15.9524 136.322 15.9524Z" fill="#232323"/>
<rect x="58" width="40" height="40" rx="6" fill="white"/>
<path d="M73.3468 20.5933H75.7036V30.4164C75.7036 30.6103 75.8589 30.7674 76.0504 30.7674H80.0465C80.2381 30.7674 80.3933 30.6103 80.3933 30.4164V20.6396H83.1027C83.2789 20.6396 83.4271 20.5058 83.4472 20.3286L83.8587 16.7123C83.87 16.6128 83.8389 16.5131 83.7731 16.4385C83.7073 16.3638 83.6131 16.321 83.5143 16.321H80.3935V14.0541C80.3935 13.3708 80.7569 13.0242 81.4738 13.0242C81.5759 13.0242 83.5143 13.0242 83.5143 13.0242C83.7058 13.0242 83.8611 12.867 83.8611 12.6732V9.35369C83.8611 9.15974 83.7058 9.0026 83.5143 9.0026H80.7022C80.6823 9.00162 80.6383 9 80.5734 9C80.0854 9 78.3894 9.09697 77.0497 10.3447C75.5653 11.7275 75.7717 13.383 75.821 13.6701V16.321H73.3468C73.1552 16.321 73 16.4781 73 16.672V20.2422C73 20.4361 73.1552 20.5933 73.3468 20.5933Z" fill="#232323"/>
<rect width="40" height="40" rx="6" fill="white"/>
<path d="M30.5014 13.1045C30.1558 13.2597 29.8005 13.3907 29.4374 13.497C29.8672 13.0048 30.195 12.4257 30.395 11.792C30.4399 11.65 30.3934 11.4945 30.2781 11.4016C30.1629 11.3087 30.0028 11.2975 29.876 11.3736C29.105 11.8366 28.2731 12.1693 27.4008 12.3639C26.5222 11.4947 25.3288 11 24.0951 11C21.4909 11 19.3723 13.1449 19.3723 15.7812C19.3723 15.9889 19.3853 16.1954 19.4109 16.399C16.1794 16.1117 13.1752 14.5037 11.1122 11.9417C11.0386 11.8504 10.9254 11.8012 10.8094 11.8106C10.6934 11.8198 10.5891 11.886 10.5305 11.9878C10.1121 12.7147 9.89087 13.5461 9.89087 14.3919C9.89087 15.544 10.2972 16.6371 11.0149 17.4912C10.7966 17.4147 10.5849 17.319 10.3827 17.2055C10.2742 17.1443 10.1418 17.1453 10.034 17.2078C9.92614 17.2704 9.85851 17.3855 9.85567 17.5113C9.85517 17.5325 9.85517 17.5537 9.85517 17.5752C9.85517 19.2949 10.7694 20.8431 12.1671 21.6869C12.047 21.6748 11.927 21.6572 11.8078 21.6341C11.6849 21.6103 11.5585 21.654 11.4756 21.7489C11.3925 21.8437 11.3651 21.9759 11.4033 22.0966C11.9207 23.7319 13.2527 24.9347 14.8629 25.3014C13.5274 26.1482 12.0001 26.5918 10.3968 26.5918C10.0623 26.5918 9.7258 26.5719 9.39651 26.5325C9.23293 26.5128 9.07652 26.6106 9.02081 26.7681C8.9651 26.9256 9.02414 27.1013 9.16331 27.1916C11.223 28.5286 13.6046 29.2353 16.0505 29.2353C20.8588 29.2353 23.8668 26.9398 25.5434 25.014C27.6341 22.6128 28.8332 19.4345 28.8332 16.2941C28.8332 16.163 28.8312 16.0305 28.8272 15.8984C29.6521 15.2692 30.3622 14.5078 30.9401 13.6326C31.0279 13.4997 31.0184 13.324 30.9167 13.2017C30.8151 13.0793 30.6459 13.0397 30.5014 13.1045Z" fill="#232323"/>
</svg>
